<?xml version="1.0" encoding="utf-8"?>
<!-- Generator: Adobe Illustrator 24.0.1, SVG Export Plug-In . SVG Version: 6.00 Build 0)  -->
<svg version="1.1" id="Layer_1" xmlns="http://www.w3.org/2000/svg" xmlns:xlink="http://www.w3.org/1999/xlink" x="0px" y="0px"
	 viewBox="0 0 304 273.5" style="enable-background:new 0 0 304 273.5;" xml:space="preserve">
<style type="text/css">
	.st0{fill:#E32729;}
	.st1{fill:#3DAF5B;}
	.st2{fill:#1272B3;}
</style>
<path class="st0" d="M143.1,157.7c-0.1-0.1-0.3-0.1-0.4-0.2c-0.4-0.4-0.8-0.8-1.3-1.3c-10.3-10.6-20.7-21.2-31-31.9
	C95.9,109.4,81.5,94.6,67,79.7c-5.2-5.3-10.4-10.7-15.6-16c-0.3-0.3-0.5-0.6-0.8-0.9v-0.2c0.2-0.2,0.3-0.4,0.5-0.6
	c1.7-1.8,3.5-3.5,5.2-5.3C73,39.6,89.7,22.6,106.4,5.5c1.5-1.6,3-3.1,4.6-4.7c0.3-0.3,0.6-0.5,0.8-0.8c0.1-0.1,0.3,0,0.3,0.1
	s0.1,0.2,0.1,0.2c0.5,2.3,0.9,4.6,1.3,6.9c0.6,3.3,1.3,6.5,1.9,9.8c0.5,2.8,1.1,5.6,1.6,8.4c0.6,3.3,1.3,6.5,1.9,9.8
	c0.7,3.3,1.3,6.7,2,10c0.6,3.3,1.3,6.5,1.9,9.8c0.6,3.2,1.3,6.4,1.9,9.6c0.6,3.3,1.3,6.5,1.9,9.8c0.6,2.9,1.1,5.8,1.7,8.6
	c0.6,3.3,1.3,6.5,1.9,9.8c0.6,3.2,1.3,6.4,1.9,9.6c0.6,3.3,1.3,6.6,1.9,9.9c0.6,2.8,1.1,5.7,1.7,8.5c0.5,2.8,1.1,5.6,1.6,8.4
	c0.6,3.3,1.3,6.5,1.9,9.8c0.6,3.3,1.3,6.5,1.9,9.8c0.5,2.8,1.1,5.5,1.6,8.3C143.2,157.3,143.1,157.5,143.1,157.7z"/>
<polygon class="st1" points="143.1,158.3 260.6,91 304,168.2 "/>
<polygon class="st2" points="143.1,158.3 76.2,273.5 0,229.1 "/>
</svg>
