<?xml version="1.0" encoding="utf-8"?>
<!-- Generator: Adobe Illustrator 24.0.1, SVG Export Plug-In . SVG Version: 6.00 Build 0)  -->
<svg version="1.1" id="Layer_1" xmlns="http://www.w3.org/2000/svg" xmlns:xlink="http://www.w3.org/1999/xlink" x="0px" y="0px"
	 viewBox="0 0 628.2 256" style="enable-background:new 0 0 628.2 256;" xml:space="preserve">
<style type="text/css">
	.st0{fill:#E32729;}
	.st1{fill:#E3252A;}
	.st2{fill:#3DAF5B;}
	.st3{fill:#1272B3;}
</style>
<g>
	<g>
		<path class="st0" d="M128.8,141.6c-0.1-0.1-0.3-0.1-0.3-0.1c-0.4-0.4-0.8-0.8-1.1-1.1c-9.3-9.6-18.6-19.1-27.9-28.7
			c-13-13.4-26-26.7-39-40.1c-4.7-4.8-9.3-9.6-14-14.4c-0.2-0.2-0.5-0.5-0.7-0.8v-0.2c0.1-0.2,0.3-0.4,0.4-0.5
			c1.6-1.6,3.1-3.2,4.7-4.8C65.9,35.6,81,20.2,96,4.9c1.4-1.4,2.7-2.8,4.1-4.2c0.2-0.2,0.5-0.5,0.7-0.7c0.1-0.1,0.3,0,0.3,0.1
			s0.1,0.1,0.1,0.2c0.4,2.1,0.8,4.1,1.2,6.2c0.6,2.9,1.1,5.9,1.7,8.8c0.5,2.5,1,5,1.5,7.5c0.6,2.9,1.1,5.9,1.7,8.8
			c0.6,3,1.2,6,1.8,9c0.6,2.9,1.2,5.9,1.7,8.8c0.6,2.9,1.1,5.8,1.7,8.7c0.6,2.9,1.1,5.9,1.7,8.8c0.5,2.6,1,5.2,1.5,7.8
			c0.6,2.9,1.2,5.9,1.7,8.8c0.6,2.9,1.1,5.8,1.7,8.7c0.6,3,1.2,5.9,1.7,8.9c0.5,2.6,1,5.1,1.5,7.7c0.5,2.5,1,5,1.5,7.5
			c0.6,2.9,1.2,5.9,1.7,8.8c0.6,2.9,1.1,5.9,1.7,8.8c0.5,2.5,1,5,1.5,7.4C128.9,141.3,128.8,141.4,128.8,141.6z"/>
		<path class="st1" d="M379.8,251.1c0.7-0.3,1.4-0.5,2.1-0.7c0.5-0.2,0.9-0.3,1.4-0.6c1.5-0.7,2.6-1.9,3.2-3.5
			c0.3-0.8,0.5-1.7,0.6-2.6s0.3-1.9,0.3-2.9c0.1-2.1,0.1-4.2,0.1-6.3c0-5.1,0-10.2,0-15.3c0-2.7-0.1-5.4-0.2-8
			c-0.1-2.3-0.3-4.5-0.7-6.7c-0.2-1.4-0.6-2.8-1.1-4.1c-0.4-0.9-0.8-1.8-1.4-2.6c-1.1-1.6-2.6-2.7-4.4-3.4c-1.2-0.4-2.4-0.7-3.7-0.7
			c-0.7,0-1.3,0-2,0c-2,0-3.8,0.5-5.5,1.5c-0.5,0.3-1,0.6-1.5,0.9c-1.7,1.1-3.2,2.4-4.7,3.9c-1,1-1.9,2.1-2.6,3.4
			c-0.9,1.6-1.5,3.3-1.6,5.2c0,0.6-0.1,1.2-0.1,1.8c0,8.9,0,17.8,0,26.7c0,1.8,0.1,3.6,0.1,5.4c0,1,0.2,1.9,0.4,2.8
			c0,0.1,0,0.2,0,0.2c0.5,2.1,1.8,3.5,3.7,4.4c0.8,0.3,1.6,0.6,2.4,0.9c0.3,0.1,0.7,0.2,1,0.3c0.1,0,0.1,0.2,0.2,0.3v0.1
			c0,0.9,0,1.8,0,2.6c0,0.2-0.2,0.4-0.4,0.4c-0.3,0-0.6,0-0.9,0c-8.5,0-16.9,0-25.4,0c-0.3,0-0.5,0-0.8,0c-0.4,0-0.6-0.2-0.6-0.5
			c0-0.5,0-0.9,0-1.4c0-1.7-0.2-1.4,1.4-1.9c0.8-0.2,1.5-0.5,2.3-0.8c0.4-0.2,0.8-0.4,1.1-0.6c1.1-0.7,1.8-1.6,2.3-2.8
			c0.4-1,0.6-2,0.7-3c0.2-1.5,0.3-3,0.3-4.5c0-1.3,0-2.7,0-4c0-19,0-38.1,0-57.1c0-3.1,0-6.3-0.1-9.4c0-1.6-0.2-3.3-0.5-4.9
			c-0.1-0.8-0.4-1.5-0.6-2.2c-0.6-1.7-1.8-2.8-3.5-3.4c-0.8-0.3-1.6-0.5-2.4-0.7c-0.5-0.1-1-0.2-1.5-0.3c-0.2-0.1-0.4-0.2-0.6-0.2
			c0-0.2-0.1-0.4-0.1-0.6c0-0.7,0-1.5,0-2.2c0-0.2,0-0.3,0-0.5c0-0.1,0.2-0.3,0.3-0.3c0.1,0,0.2,0,0.2,0c2.2-0.1,4.4-0.2,6.7-0.3
			c0.7,0,1.5-0.1,2.2-0.1c0.8,0,1.7-0.1,2.5-0.1c1.1,0,2.1-0.1,3.2-0.1c0.6,0,1.1-0.1,1.7-0.1c1.2,0,2.5,0,3.7,0
			c0.2,0,0.4,0,0.6,0.1c0.1,0,0.1,0.1,0.2,0.2c0,0.1,0.1,0.3,0.1,0.4c0,0.5,0,0.9,0,1.4c0,13.7,0,27.4,0,41.1c0,0.4,0,0.8,0,1.3
			c0,0.2,0,0.3,0.1,0.5c0,0.1,0.3,0.3,0.4,0.2c0.2-0.1,0.4-0.3,0.5-0.4c1-1,2-1.9,3-2.9c1.1-1,2.2-2,3.4-3c2-1.7,4.2-3,6.6-4.1
			c2-0.9,4-1.5,6.2-1.7c0.8-0.1,1.7-0.1,2.5-0.1c0.7,0,1.4,0,2.1,0.1c2.2,0.2,4.3,0.6,6.4,1.4c3.7,1.5,6.3,4.1,8,7.7
			c0.7,1.6,1.2,3.2,1.6,4.9c0.4,2,0.6,3.9,0.8,5.9c0.1,2.3,0.1,4.5,0.1,6.8c0,8.1,0,16.2,0,24.2c0,1.3,0,2.5,0,3.8s0.1,2.6,0.3,3.9
			c0.1,0.8,0.3,1.7,0.6,2.4c0.5,1.4,1.5,2.5,2.8,3.2c1,0.5,2,0.8,3,1.2c1.5,0.5,1.3,0.2,1.3,1.8c0,0.5,0,1.1,0,1.6
			c0,0.2-0.2,0.4-0.4,0.4c-0.3,0-0.6,0-0.9,0c-8.4,0-16.9,0-25.3,0c-1.4,0-1.3,0-1.3-1.3c0-0.5,0-1.1,0-1.6
			C379.7,251.5,379.8,251.3,379.8,251.1z"/>
		<path class="st1" d="M171.4,202.1c0,11.3,0,22.5,0,33.8c0,1.1,0,2.2,0,3.3c0,1.4,0.2,2.8,0.5,4.2c0.2,0.8,0.4,1.6,0.7,2.4
			c0.7,1.8,1.9,3,3.6,3.8c1.1,0.5,2.2,0.8,3.4,1.1c0.4,0.1,0.7,0.2,1.1,0.3c0.1,0,0.3,0.2,0.3,0.3c0,0.5,0,0.9,0,1.4
			c0,0.4,0,0.8,0,1.3c0,0.3-0.2,0.5-0.5,0.5c-0.4,0-0.8,0-1.1,0c-7.6,0-15.2,0-22.8,0c-2.3,0-4.7,0-7,0c-1.1,0-1.1-0.1-1.1-1.1
			c0-0.7,0-1.3,0-2c0-0.3,0.1-0.4,0.4-0.5c0.6-0.2,1.2-0.3,1.8-0.5s1.1-0.3,1.6-0.5s0.9-0.4,1.4-0.6c1.6-0.8,2.7-2,3.3-3.6
			c0.2-0.5,0.3-0.9,0.5-1.4c0.3-1.1,0.4-2.2,0.5-3.3c0.2-1.8,0.2-3.6,0.2-5.4c0-23.5,0-47,0-70.4c0-0.5,0-1,0-1.5
			c0-0.2-0.2-0.4-0.4-0.4s-0.5,0-0.7,0c-2.8,0-5.7,0-8.5,0c-1.1,0-2.3,0.1-3.4,0.3c-2,0.3-3.8,1.2-5.2,2.6c-0.7,0.7-1.3,1.4-1.8,2.2
			c-0.7,1.1-1.3,2.3-1.9,3.6c-0.9,2.2-1.6,4.5-2.3,6.7c-0.2,0.9-0.5,1.8-0.7,2.7c-0.1,0.3-0.2,0.4-0.5,0.4c-0.2,0-0.5,0-0.7,0
			c-1.6,0-3.1,0-4.7,0c-0.2,0-0.5,0-0.7,0c-0.3,0-0.5-0.2-0.5-0.5s0-0.6,0-0.9c0-7.3,0-14.6,0-21.8c0-0.3,0-0.7,0-1
			c0-0.2,0.2-0.3,0.4-0.4c0.2,0,0.3,0,0.5,0c0.3,0,0.7,0,1,0c24.5,0,49,0,73.4,0c0.5,0,1,0,1.5,0c0.2,0,0.3,0.2,0.3,0.4
			c0,0.3,0,0.7,0,1c0,2.1,0,4.3,0,6.4c0,5.1,0,10.2,0,15.3c0,0.4,0,0.8,0,1.1c0,0.1-0.2,0.3-0.3,0.3c-0.2,0-0.3,0.1-0.5,0.1
			c-1.8,0-3.6,0-5.4,0c-0.1,0-0.2,0-0.3,0c-0.3,0-0.4-0.2-0.5-0.4c-0.1-0.3-0.2-0.7-0.3-1c-0.6-2.2-1.3-4.4-2.1-6.6
			c-0.6-1.5-1.2-2.9-1.9-4.3c-0.7-1.3-1.6-2.5-2.6-3.5c-0.6-0.5-1.2-1-1.9-1.4s-1.4-0.7-2.2-0.9s-1.7-0.3-2.5-0.4
			c-0.9,0-1.8-0.1-2.6-0.1c-2.5,0-4.9,0-7.4,0c-0.3,0-0.6,0-0.9,0c-0.3,0-0.5,0.2-0.5,0.5c0,0.4,0,0.8,0,1.3
			C171.4,177.5,171.4,189.8,171.4,202.1z"/>
		<path class="st1" d="M419,189.9c0-0.1,0-0.1-0.1-0.1c-0.1-1-0.1-2.1,0-3.1c0-0.2,0.2-0.3,0.4-0.4c0.6-0.1,1.1-0.1,1.7-0.1
			c0.7,0,1.4,0,2.1-0.1c1.1,0,2.1-0.1,3.2-0.1c0.9,0,1.8-0.1,2.8-0.1c1.1,0,2.1-0.1,3.2-0.1c0.9,0,1.8-0.1,2.8-0.1c1.3,0,2.7,0,4,0
			c0.2,0,0.4,0,0.6,0.1c0.1,0,0.1,0.1,0.1,0.2c0,0.1,0,0.3,0,0.5c-0.1,1.3-0.2,2.7-0.3,4c-0.1,1.7-0.2,3.4-0.3,5.2
			c0,0.5-0.1,1-0.1,1.5c0,0.1,0.1,0.2,0.2,0.3c0.2,0.1,0.5,0.2,0.8,0.2c0.1,0,0.2,0,0.2-0.1c0.2-0.2,0.4-0.4,0.6-0.5
			c1-1,2.1-2,3.1-3c1.1-1,2.2-2,3.4-2.9c2.2-1.7,4.5-3.1,7.1-4.2c1.8-0.8,3.6-1.2,5.5-1.4c0.6-0.1,1.3-0.1,2-0.1
			c1.9,0,3.8,0.1,5.7,0.5c1.4,0.3,2.7,0.7,3.9,1.3c3.3,1.6,5.6,4,7.2,7.3c0.7,1.6,1.3,3.2,1.6,4.9c0.4,1.8,0.6,3.5,0.7,5.3
			c0.2,2.1,0.2,4.2,0.2,6.3c0,8.7,0,17.3,0,26c0,1,0,2,0,3c0,1.3,0.1,2.6,0.2,3.9c0.1,0.8,0.2,1.6,0.5,2.4c0.4,1.3,1.2,2.4,2.4,3.1
			c0.5,0.4,1.1,0.6,1.7,0.9c0.7,0.3,1.4,0.5,2.1,0.7c0.3,0.1,0.6,0.2,0.9,0.3c0.1,0,0.1,0.2,0.2,0.2v0.1c0,0.9,0,1.8,0,2.8
			c0,0.1-0.2,0.3-0.3,0.3c-0.1,0-0.2,0-0.3,0c-0.3,0-0.6,0-0.9,0c-8.3,0-16.5,0-24.8,0c-0.4,0-0.8,0-1.1,0c-0.3,0-0.5-0.2-0.5-0.4
			c0-0.9,0-1.8,0-2.6c0-0.3,0.1-0.4,0.4-0.5c0.7-0.2,1.3-0.4,1.9-0.7c0.5-0.2,1.1-0.4,1.6-0.7c1.3-0.7,2.2-1.7,2.7-3
			c0.3-0.8,0.5-1.6,0.7-2.4c0.1-0.6,0.2-1.1,0.2-1.7c0.1-1.5,0.2-2.9,0.2-4.4c0-7.2,0-14.5,0-21.7c0-2.6-0.1-5.1-0.3-7.7
			c-0.1-1.5-0.3-2.9-0.5-4.3c-0.2-1.4-0.6-2.8-1.2-4.2c-1.3-3.2-3.7-5.2-7-6.1c-0.6-0.2-1.3-0.3-1.9-0.3c-1-0.1-2.1-0.1-3.1,0
			c-1.7,0.1-3.4,0.6-4.9,1.5c-3.2,1.8-6,4.3-8.1,7.3c-1.3,1.8-2,3.9-2.2,6.1c0,0.6-0.1,1.2-0.1,1.8c0,9.2,0,18.3,0,27.5
			c0,1.5,0.1,3.1,0.2,4.6c0.1,0.9,0.1,1.8,0.4,2.7c0.1,0.4,0.3,0.9,0.4,1.3c0.5,1.3,1.4,2.3,2.6,3c1,0.5,2,0.9,3.1,1.3
			c0.3,0.1,0.7,0.2,1,0.3c0.2,0.1,0.3,0.2,0.3,0.4c0,0.9,0,1.8,0,2.6c0,0.2-0.2,0.4-0.5,0.4s-0.6,0-0.9,0c-8.4,0-16.7,0-25.1,0
			c-0.3,0-0.7,0-1,0c-0.2,0-0.4-0.2-0.4-0.4c-0.1-0.9-0.1-1.8,0-2.8c0-0.2,0.1-0.3,0.3-0.3c0.5-0.2,0.9-0.3,1.4-0.5
			c0.6-0.2,1.3-0.5,1.9-0.8c1.5-0.7,2.5-1.9,3.1-3.4c0.4-1.1,0.6-2.3,0.8-3.5c0.2-1.8,0.2-3.6,0.2-5.4c0-11.1,0-22.2,0-33.3
			c0-1.3,0-2.6,0-3.9c0-1.1-0.1-2.1-0.2-3.2c-0.1-0.8-0.3-1.6-0.5-2.3c-0.6-1.6-1.7-2.7-3.2-3.4c-1.1-0.5-2.3-0.8-3.5-1
			C419.7,190.2,419.3,190.2,419,189.9z"/>
		<path class="st1" d="M541.5,189.8c-0.1-0.1-0.1-0.2-0.1-0.2c0-0.9,0-1.8,0-2.8c0-0.2,0.2-0.4,0.4-0.4c0.3,0,0.6,0,0.9,0
			c5.9,0,11.7,0,17.6,0c1.4,0,1.3-0.1,1.3,1.3c0,1.2,0,2.5,0,3.7c0,15.1,0,30.3,0,45.4c0,2,0.1,4,0.2,6c0,1,0.2,1.9,0.5,2.8
			c0.5,2,1.7,3.4,3.6,4.1c0.9,0.4,1.8,0.6,2.7,0.9c0.4,0.1,0.8,0.2,1.2,0.3c0.3,0.1,0.4,0.2,0.4,0.5c0,1,0,1.9,0,2.9
			c0,0.2-0.2,0.4-0.5,0.4c-0.4,0-0.8,0-1.3,0.1c-1.1,0.1-2.3,0.1-3.4,0.2c-0.1,0-0.2,0-0.3,0c-2.6,0.1-5.1,0.2-7.7,0.3
			c-0.5,0-1,0-1.5,0.1c-1.7,0.2-3.4,0.1-5.2,0.1c-0.1,0-0.2,0-0.3,0s-0.3-0.2-0.3-0.3c0-0.2,0-0.4,0-0.6c0.1-1.5,0.1-3.1,0.2-4.6
			c0.1-1.6,0.1-3.3,0.2-4.9c0-0.3,0-0.7,0-1c0-0.2-0.1-0.3-0.3-0.3c-0.2-0.1-0.4-0.1-0.6-0.1c-0.1,0-0.3,0-0.4,0.1
			c-0.3,0.2-0.5,0.5-0.7,0.7c-1,1.1-2.1,2.1-3.2,3.1c-1.5,1.4-3.1,2.7-4.8,3.9c-1.5,1-3,1.9-4.6,2.6c-2.4,1-4.8,1.7-7.4,1.8
			c-2.6,0.1-5.2-0.1-7.7-0.8c-1.3-0.4-2.5-0.9-3.7-1.5c-2.4-1.4-4.3-3.3-5.6-5.8c-0.9-1.6-1.5-3.3-1.9-5c-0.3-1.4-0.6-2.8-0.8-4.3
			c-0.3-2.6-0.4-5.1-0.4-7.7c0-9,0-17.9,0-26.9c0-0.9,0-1.8,0-2.8c0-1.3-0.1-2.7-0.3-4c-0.1-0.9-0.3-1.8-0.7-2.7
			c-0.6-1.4-1.5-2.4-2.8-3c-1-0.5-2-0.8-3-1.1c-1.4-0.4-1.2-0.2-1.2-1.7c0-0.5,0-1.1,0-1.6c0-0.2,0.2-0.4,0.4-0.4c0.2,0,0.4,0,0.6,0
			c6.1,0,12.2,0,18.3,0c0.2,0,0.5,0,0.7,0c0.1,0,0.3,0.2,0.3,0.3c0,0.2,0,0.3,0,0.5c0,0.4,0,0.8,0,1.1c0,11.3,0,22.6,0,33.9
			c0,1.5,0,3.1,0,4.6c0,2,0.1,3.9,0.3,5.9c0.2,2.2,0.5,4.3,1.1,6.4c0.1,0.4,0.3,0.8,0.4,1.2c0.9,2.5,2.5,4.3,4.7,5.6
			c0.6,0.3,1.2,0.6,1.8,0.8c1.7,0.5,3.5,0.6,5.2,0.5s3.3-0.5,4.9-1.2c0.7-0.3,1.4-0.7,2-1.1c1.9-1.3,3.7-2.7,5.2-4.5
			c0.6-0.6,1.1-1.3,1.6-2c1-1.5,1.6-3.1,1.9-4.9c0.1-0.9,0.2-1.7,0.2-2.6c0-9.4,0-18.8,0-28.1c0-1.6-0.1-3.3-0.2-4.9
			c-0.1-0.8-0.2-1.6-0.4-2.4c-0.2-0.6-0.4-1.2-0.7-1.8c-0.4-0.8-1.1-1.5-1.8-2c-0.5-0.4-1.1-0.7-1.7-0.9c-0.6-0.2-1.3-0.4-2-0.7
			C542.1,190,541.8,189.9,541.5,189.8z"/>
		<path class="st1" d="M260.1,242.5c-0.1,0.2-0.2,0.3-0.3,0.4c-2.2,2.2-4.4,4.4-6.9,6.3c-3.2,2.5-6.7,4.3-10.6,5.4
			c-2.1,0.6-4.3,0.9-6.4,1.1c-2.1,0.1-4.1,0.1-6.2-0.1c-3.1-0.2-6.2-0.9-9.2-2c-4.7-1.9-8.4-4.9-11.2-9.2c-1.6-2.5-2.8-5.2-3.6-8
			c-0.7-2.2-1.1-4.5-1.4-6.9c-0.4-3.2-0.6-6.3-0.5-9.5c0-1,0-2,0.1-3c0.4-5.5,1.6-10.8,4.1-15.8c1.7-3.4,4-6.5,6.9-9
			c3.3-2.9,7.1-4.9,11.4-6c1.5-0.4,3.1-0.7,4.6-0.8c1.8-0.2,3.6-0.3,5.4-0.2c0.5,0,1,0.1,1.5,0.1c2.9,0.2,5.8,0.8,8.5,1.9
			c2.8,1.1,5.2,2.7,7.3,4.8c1.3,1.4,2.4,2.9,3.3,4.5c1.2,2.2,2.1,4.4,2.8,6.8c0.5,1.9,0.9,3.8,1.2,5.7c0.4,3,0.7,6.1,0.8,9.2
			c0,1,0,1.1-1,1.1c-0.4,0-0.8,0-1.1,0c-13.6,0-27.3,0-40.9,0c-0.5,0-0.9,0-1.4,0c-0.2,0-0.4,0.2-0.4,0.4v0.1c0,1.7,0,3.4,0.1,5.2
			c0.1,1.2,0.2,2.4,0.4,3.5c0.3,2.4,0.8,4.7,1.6,6.9c0.7,2,1.7,3.8,3,5.4c2.4,3,5.6,5,9.4,5.7c1.5,0.3,3,0.5,4.6,0.5
			c0.5,0,1,0,1.5,0c4.5-0.1,8.7-1.4,12.4-3.9c1.9-1.3,3.6-2.7,5.2-4.3c0.3-0.3,0.6-0.7,1-1c0.1,0.1,0.2,0.1,0.3,0.2
			C256.7,238.7,259.7,241.9,260.1,242.5z M232.6,213.5c4.7,0,9.4,0,14.1,0c0.4,0,0.8,0,1.1,0c0.2,0,0.4-0.2,0.4-0.4
			c0-0.3,0-0.5,0-0.8c-0.1-1.5-0.3-3.1-0.4-4.6c-0.2-1.9-0.6-3.7-1-5.5c-0.4-1.7-1-3.3-1.8-4.8c-0.7-1.3-1.5-2.4-2.5-3.4
			c-1.6-1.6-3.4-2.6-5.6-3c-1.9-0.4-3.9-0.4-5.8,0c-2.7,0.5-5.1,1.7-7.1,3.6c-1.1,1-2,2.2-2.8,3.5s-1.5,2.8-2,4.2
			c-1.2,3.3-1.8,6.6-2.1,10.1c-0.1,1.2-0.1,1.2,1.1,1.2c0.2,0,0.5,0,0.7,0C223.5,213.5,228,213.5,232.6,213.5z"/>
		<path class="st1" d="M581.2,190c0.1,0,0.2-0.1,0.3-0.1c0.4-0.1,0.8-0.1,1.1-0.2c0.7-0.1,1.4-0.2,2-0.4c0.3-0.1,0.6-0.2,0.9-0.3
			c1.3-0.5,2.2-1.4,2.7-2.7c0.4-1,0.7-2,0.9-3.1c0.2-1.4,0.4-2.8,0.5-4.2c0.3-3.3,0.8-6.6,1.8-9.8c1.1-3.4,2.9-6.5,5.4-9.1
			c3.5-3.5,7.5-5.9,12.3-7c1.4-0.3,2.8-0.5,4.2-0.7c2.5-0.3,5-0.3,7.5-0.2c0.5,0,1.1,0,1.6,0.1c1.7,0,3.4,0.3,5.1,0.5
			c0.2,0,0.4,0.1,0.5,0.2c0.1,0,0.2,0.2,0.2,0.3c0,0.2,0,0.4,0,0.6c0,3.7,0,7.4,0,11.1c0,0.8,0,0.8-0.8,0.8c-1.8,0-3.6,0-5.4,0
			c-0.2,0-0.5,0-0.7-0.1c-0.1-0.3-0.2-0.6-0.4-0.9c-0.3-0.7-0.6-1.4-0.9-2.1c-0.3-0.7-0.7-1.4-1.2-2c-1-1.4-2.3-2.2-4-2.5
			c-1.5-0.3-3.1-0.2-4.6,0.1c-2.1,0.4-3.7,1.6-5,3.2c-0.7,0.9-1.2,1.9-1.7,2.9c-0.5,1.2-0.8,2.4-1.1,3.6c-0.2,1.2-0.4,2.5-0.5,3.7
			c-0.2,2-0.2,4.1-0.3,6.1c0,2.5,0,4.9,0,7.4c0,0.3,0,0.6,0,0.9c0,0.1,0.2,0.3,0.3,0.3s0.2,0,0.3,0c0.4,0,0.8,0,1.1,0
			c4.6,0,9.2,0,13.8,0c1.6,0,1.4-0.1,1.4,1.4s0,3.1,0,4.6c0,0.3,0,0.5-0.1,0.8c0,0.1-0.1,0.2-0.2,0.2c-0.2,0-0.5,0.1-0.7,0.1
			c-1.2,0-2.4,0-3.6,0c-3.7,0-7.4,0-11,0c-0.4,0-0.8,0-1.1,0c-0.1,0-0.3,0.2-0.3,0.3c0,0.2,0,0.3,0,0.5c0,0.3,0,0.7,0,1
			c0,13.9,0,27.8,0,41.7c0,1.3,0,2.6,0.1,3.9c0.1,1.5,0.2,2.9,0.7,4.3c0.1,0.2,0.1,0.4,0.2,0.7c0.6,1.9,1.8,3.2,3.6,4
			c0.9,0.4,1.9,0.7,2.8,0.9c0.4,0.1,0.7,0.2,1.1,0.3c0.2,0,0.3,0.2,0.3,0.4c0,0.9,0,1.8,0,2.6c0,0.2-0.2,0.4-0.4,0.4
			c-0.3,0-0.6,0-0.9,0c-8.8,0-17.5,0-26.3,0c-0.3,0-0.6,0-0.9,0c-0.3,0-0.5-0.2-0.5-0.5c0-0.8,0-1.7,0-2.5c0-0.2,0.1-0.4,0.3-0.4
			c0.5-0.2,1-0.3,1.5-0.5c0.6-0.2,1.2-0.4,1.8-0.7c0.4-0.2,0.8-0.4,1.2-0.7c1.1-0.7,1.8-1.6,2.2-2.8c0.3-0.9,0.5-1.9,0.7-2.9
			c0.2-1.7,0.3-3.4,0.3-5.2c0-14.5,0-29,0-43.4c0-0.3,0-0.6,0-0.9c0-0.3-0.2-0.5-0.5-0.5s-0.7,0-1,0c-1.9,0-3.8,0-5.6,0
			c-0.3,0-0.7,0-1,0c-0.1,0-0.3-0.1-0.3-0.3c0-0.1,0-0.2,0-0.2c0-0.8,0-1.7,0-2.5C581.1,190.3,581.2,190.1,581.2,190z"/>
		<path class="st1" d="M327.7,195.4c0,2,0,4,0,6c0,0.3,0,0.7,0,1c0,0.2-0.2,0.4-0.4,0.4c-0.2,0-0.3,0-0.5,0c-0.3,0-0.6,0-0.9,0
			c-1.8,0-3.7,0-5.5,0c-0.3,0-0.6,0-0.9,0c-0.5,0-0.7,0-0.9-0.7c-0.3-1.1-0.7-2.2-1.1-3.3c-0.4-0.9-0.8-1.8-1.2-2.6
			c-0.5-0.9-1.1-1.7-1.8-2.5c-1.2-1.2-2.5-2.1-4.2-2.5c-1-0.3-2.1-0.5-3.2-0.5c-0.7,0-1.3,0-2,0c-2.2,0-4.3,0.7-6.2,1.8
			c-1.5,0.8-2.8,1.9-3.9,3.2c-1,1.1-1.8,2.4-2.5,3.7c-1.2,2.4-2.1,4.8-2.7,7.4c-0.5,1.9-0.8,3.8-1,5.8c-0.4,3.2-0.5,6.5-0.3,9.8
			c0.1,2.5,0.3,5,0.7,7.5c0.3,2.2,0.8,4.4,1.6,6.5c0.6,1.5,1.3,3,2.3,4.4c1.6,2.2,3.6,4,6.1,5.1c1.3,0.6,2.6,0.9,4,1.1
			c1.8,0.3,3.5,0.3,5.3,0.1c3.5-0.3,6.8-1.4,9.8-3.3c1.8-1.2,3.4-2.6,5-4.1c0.3-0.3,0.7-0.6,1-1c0.1-0.1,0.3-0.1,0.4,0l0.1,0.1
			c1.2,1.3,2.3,2.7,3.5,4c0.2,0.2,0.2,0.3,0,0.5c-0.1,0.1-0.1,0.2-0.2,0.3c-1.5,1.7-3.1,3.3-4.8,4.7c-3.9,3.3-8.3,5.5-13.3,6.7
			c-1.4,0.3-2.8,0.5-4.2,0.6c-0.2,0-0.4,0-0.6,0c-2.3,0.2-4.5,0-6.8-0.2c-2-0.3-4-0.7-5.9-1.4c-4.1-1.5-7.5-4.1-10.2-7.6
			c-1.8-2.3-3.1-4.8-4.1-7.5c-0.9-2.4-1.5-4.8-1.9-7.3c-0.4-2.2-0.6-4.5-0.7-6.7c-0.1-1.5-0.1-2.9-0.1-4.4c0.1-3.3,0.4-6.6,1.1-9.9
			c1-4.3,2.6-8.3,5-12c3.8-5.9,9.1-9.8,15.8-11.9c1.7-0.5,3.4-0.9,5.2-1.1c1.8-0.2,3.7-0.3,5.5-0.3s3.5,0.1,5.3,0.2
			c1.2,0.1,2.4,0.2,3.5,0.3c2,0.2,4,0.6,6,1c1.5,0.3,3.1,0.7,4.6,1.2c0.1,0,0.2,0.1,0.3,0.1c0.1,0.1,0.3,0.2,0.3,0.3
			c0,0.3,0,0.7,0,1C327.7,191.3,327.7,193.4,327.7,195.4z"/>
	</g>
	<polygon class="st2" points="128.8,142.2 234.5,81.6 273.6,151.1 	"/>
	<polygon class="st3" points="128.8,142.2 68.6,245.9 0,205.9 	"/>
</g>
</svg>
