<?xml version="1.0" encoding="utf-8"?>
<!-- Generator: Adobe Illustrator 24.0.1, SVG Export Plug-In . SVG Version: 6.00 Build 0)  -->
<svg version="1.1" id="Layer_1" xmlns="http://www.w3.org/2000/svg" xmlns:xlink="http://www.w3.org/1999/xlink" x="0px" y="0px"
	 viewBox="0 0 1279.2 520.8" style="enable-background:new 0 0 1279.2 520.8;" xml:space="preserve">
<style type="text/css">
	.st0{fill:#FFFFFF;}
</style>
<g>
	<g>
		<path class="st0" d="M262.2,288.5c-0.3-0.1-0.5-0.2-0.7-0.3c-0.8-0.8-1.5-1.5-2.3-2.3c-18.9-19.5-37.8-38.9-56.7-58.4
			c-26.5-27.2-52.9-54.4-79.4-81.7c-9.5-9.8-19-19.6-28.5-29.4c-0.5-0.5-0.9-1-1.4-1.6c-0.1-0.1-0.1-0.3,0-0.4
			c0.3-0.4,0.6-0.7,0.9-1.1c3.2-3.2,6.3-6.5,9.5-9.7c30.6-31.2,61.2-62.5,91.8-93.7c2.8-2.8,5.6-5.7,8.4-8.5c0.5-0.5,1-1,1.5-1.4
			c0.1-0.1,0.5,0,0.6,0.2c0.1,0.1,0.1,0.3,0.2,0.4c0.8,4.2,1.6,8.4,2.5,12.6c1.2,6,2.3,11.9,3.5,17.9c1,5.1,2,10.2,3,15.4
			c1.2,6,2.3,11.9,3.5,17.9c1.2,6.1,2.4,12.2,3.6,18.3c1.2,6,2.4,11.9,3.5,17.9c1.2,5.9,2.3,11.8,3.5,17.7c1.2,6,2.3,11.9,3.5,17.9
			c1,5.3,2.1,10.6,3.1,15.8c1.2,6,2.3,11.9,3.5,17.9c1.2,5.9,2.3,11.8,3.5,17.7c1.2,6,2.4,12.1,3.5,18.1c1,5.2,2,10.4,3,15.6
			c1,5.1,2,10.2,3,15.4c1.2,6,2.3,11.9,3.5,17.9s2.3,11.9,3.5,17.9c1,5,2,10.1,3,15.1C262.2,287.9,262.2,288.2,262.2,288.5z"/>
		<path class="st0" d="M773,511.4c1.5-0.5,2.9-1,4.2-1.5c0.9-0.4,1.9-0.7,2.8-1.1c3.1-1.5,5.3-3.8,6.4-7.1c0.6-1.7,1-3.4,1.3-5.2
			c0.3-1.9,0.5-3.9,0.6-5.8c0.1-4.3,0.3-8.6,0.2-12.9c0-10.4,0-20.7,0-31.1c0-5.5-0.1-10.9-0.4-16.4c-0.2-4.6-0.6-9.2-1.4-13.7
			c-0.5-2.8-1.1-5.7-2.2-8.3c-0.8-1.9-1.7-3.7-2.9-5.3c-2.3-3.2-5.3-5.5-9-6.8c-2.4-0.9-5-1.4-7.5-1.5c-1.3,0-2.7-0.1-4,0
			c-4,0.1-7.7,1.1-11.2,3c-1,0.6-2,1.2-3,1.8c-3.4,2.3-6.6,5-9.5,8c-2,2.1-3.8,4.3-5.3,6.8c-1.9,3.3-3.1,6.8-3.3,10.6
			c-0.1,1.2-0.1,2.5-0.1,3.7c0,18.1,0,36.2,0,54.3c0,3.7,0.2,7.3,0.3,11c0.1,2,0.4,3.9,0.9,5.8c0,0.2,0.1,0.3,0.1,0.5
			c1.1,4.2,3.6,7.2,7.6,8.9c1.6,0.7,3.2,1.3,4.8,1.8c0.7,0.2,1.3,0.4,2,0.7c0.2,0.1,0.3,0.3,0.4,0.5c0,0.1,0,0.2,0,0.2
			c0,1.8,0,3.6,0,5.4c0,0.5-0.4,0.8-0.9,0.9c-0.6,0-1.2,0-1.9,0c-17.2,0-34.5,0-51.7,0c-0.5,0-1.1,0-1.6,0c-0.8,0-1.2-0.3-1.2-1.1
			c0-0.9,0-1.9,0-2.8c0.1-3.5-0.5-2.8,2.9-3.9c1.6-0.5,3.1-1.1,4.6-1.7c0.8-0.3,1.5-0.7,2.3-1.2c2.2-1.4,3.7-3.3,4.6-5.7
			c0.7-2,1.2-4,1.4-6.1c0.4-3,0.5-6.1,0.5-9.1c0-2.7,0-5.5,0-8.2c0-38.8,0-77.5,0-116.3c0-6.4-0.1-12.8-0.1-19.2
			c0-3.4-0.3-6.7-0.9-10c-0.3-1.5-0.7-3-1.3-4.5c-1.3-3.4-3.7-5.7-7.1-7c-1.6-0.6-3.3-1-4.9-1.4c-1-0.2-2-0.4-3-0.6
			c-0.4-0.1-0.9-0.3-1.3-0.5c0-0.4-0.1-0.8-0.1-1.2c0-1.5,0-3,0-4.4c0-0.3,0-0.6,0.1-0.9c0-0.3,0.3-0.5,0.6-0.6c0.2,0,0.3,0,0.5,0
			c4.5-0.2,9-0.3,13.6-0.5c1.5-0.1,3-0.2,4.4-0.2c1.7-0.1,3.4-0.1,5.1-0.2c2.2-0.1,4.4-0.2,6.5-0.3c1.2-0.1,2.3-0.1,3.5-0.1
			c2.5,0,5,0,7.5,0c0.4,0,0.8,0.1,1.1,0.1c0.1,0,0.3,0.2,0.3,0.3c0.1,0.3,0.2,0.6,0.2,0.9c0,0.9,0,1.9,0,2.8c0,27.9,0,55.8,0,83.7
			c0,0.9,0,1.7,0,2.6c0,0.3,0.1,0.6,0.1,0.9s0.5,0.5,0.7,0.3c0.4-0.3,0.7-0.6,1.1-0.9c2-1.9,4-3.9,6.1-5.8c2.2-2.1,4.5-4.1,6.8-6
			c4.1-3.4,8.6-6.2,13.4-8.4c4-1.8,8.2-3,12.5-3.5c1.7-0.2,3.4-0.2,5.1-0.2c1.4,0,2.8,0,4.2,0.1c4.5,0.3,8.8,1.1,12.9,2.9
			c7.5,3.1,12.8,8.4,16.3,15.7c1.5,3.2,2.5,6.5,3.2,10c0.8,4,1.3,8,1.5,12c0.3,4.6,0.3,9.2,0.3,13.8c0,16.5,0,32.9,0,49.4
			c0,2.6,0.1,5.1,0.1,7.7c0,2.7,0.3,5.3,0.5,7.9c0.2,1.7,0.6,3.4,1.2,5c1.1,2.9,3,5.1,5.8,6.5c2,1,4,1.7,6.1,2.4
			c3.1,1,2.7,0.3,2.7,3.6c0,1.1,0,2.2,0,3.3c0,0.5-0.4,0.9-0.9,0.9c-0.6,0-1.2,0-1.9,0c-17.2,0-34.3,0-51.5,0
			c-2.9,0-2.7,0.1-2.7-2.6c0-1.1,0-2.2,0-3.3C772.8,512.2,773,511.8,773,511.4z"/>
		<path class="st0" d="M348.7,411.7c0,22.9,0,45.8,0,68.8c0,2.3,0,4.5,0.1,6.8c0.1,2.9,0.4,5.8,0.9,8.6c0.3,1.7,0.8,3.3,1.4,4.9
			c1.4,3.6,3.9,6.1,7.4,7.7c2.2,1,4.5,1.6,6.9,2.3c0.8,0.2,1.5,0.4,2.3,0.6c0.3,0.1,0.5,0.3,0.6,0.7c0,0.9,0.1,1.9,0.1,2.8
			c0,0.9,0,1.7,0,2.6c0,0.6-0.4,1-1.1,1c-0.8,0-1.6,0-2.3,0c-15.4,0-30.9,0-46.3,0c-4.8,0-9.5,0-14.3,0c-2.3,0-2.2-0.1-2.2-2.2
			c0-1.3,0-2.7,0-4c0-0.6,0.3-0.9,0.8-1c1.2-0.3,2.4-0.6,3.6-1c1.1-0.3,2.2-0.7,3.3-1.1c0.9-0.3,1.9-0.8,2.8-1.2
			c3.2-1.6,5.4-4.1,6.8-7.4c0.4-0.9,0.7-1.9,0.9-2.9c0.5-2.2,0.9-4.4,1.1-6.7c0.3-3.7,0.3-7.3,0.3-11c0-47.8,0-95.6,0-143.4
			c0-1,0-2-0.1-3c0-0.4-0.4-0.8-0.7-0.8c-0.5,0-0.9-0.1-1.4-0.1c-5.8,0-11.5,0-17.3,0c-2.3,0-4.7,0.2-7,0.5
			c-4.2,0.6-7.7,2.4-10.7,5.3c-1.4,1.4-2.6,2.9-3.6,4.6c-1.5,2.3-2.7,4.7-3.8,7.3c-1.9,4.5-3.3,9.1-4.6,13.7c-0.5,1.8-1,3.6-1.4,5.4
			c-0.1,0.5-0.5,0.8-1,0.8c-0.5,0.1-0.9,0.1-1.4,0.1c-3.2,0-6.4,0-9.6,0c-0.5,0-0.9,0-1.4-0.1c-0.6-0.1-0.9-0.4-1-1.1
			c0-0.6,0-1.2,0-1.9c0-14.8,0-29.6,0-44.4c0-0.7,0-1.4,0.1-2.1c0-0.4,0.4-0.7,0.8-0.7c0.3,0,0.6-0.1,0.9-0.1c0.7,0,1.4,0,2.1,0
			c49.8,0,99.7,0,149.5,0c1,0,2,0,3,0.1c0.4,0,0.7,0.4,0.7,0.8c0,0.7,0,1.4,0,2.1c0,4.4,0,8.7,0,13.1c0,10.4,0,20.7,0,31.1
			c0,0.8,0,1.6-0.1,2.3c0,0.3-0.3,0.6-0.6,0.6c-0.3,0.1-0.6,0.1-0.9,0.1c-3.7,0-7.3,0-11,0c-0.2,0-0.5,0-0.7-0.1
			c-0.5-0.1-0.8-0.4-1-0.9c-0.2-0.7-0.4-1.4-0.6-2c-1.2-4.5-2.6-9-4.2-13.4c-1.1-3-2.4-5.9-4-8.7c-1.5-2.6-3.2-5-5.4-7.1
			c-1.2-1.1-2.5-2.1-3.9-2.9s-2.9-1.5-4.5-1.8c-1.7-0.4-3.4-0.7-5.1-0.8c-1.8-0.1-3.6-0.1-5.4-0.1c-5,0-10,0-15,0
			c-0.6,0-1.2,0-1.9,0c-0.6,0-1,0.4-1,1c0,0.9,0,1.7,0,2.6C348.7,361.5,348.7,386.6,348.7,411.7z"/>
		<path class="st0" d="M852.8,386.9c0-0.1-0.1-0.2-0.1-0.3c-0.2-2.1-0.1-4.2,0-6.3c0-0.4,0.4-0.7,0.8-0.7c1.2-0.1,2.3-0.2,3.5-0.3
			c1.4-0.1,2.8-0.1,4.2-0.1c2.2-0.1,4.4-0.2,6.5-0.3c1.9-0.1,3.7-0.1,5.6-0.2c2.2-0.1,4.4-0.2,6.5-0.3c1.9-0.1,3.7-0.2,5.6-0.2
			c2.7,0,5.5,0,8.2,0c0.4,0,0.8,0,1.2,0.1c0.1,0,0.3,0.2,0.3,0.3c0.1,0.3,0.1,0.6,0.1,0.9c-0.2,2.7-0.4,5.4-0.6,8.2
			c-0.2,3.5-0.4,7-0.7,10.5c-0.1,1-0.1,2-0.2,3c0,0.2,0.2,0.5,0.3,0.6c0.5,0.2,1,0.3,1.6,0.4c0.1,0,0.3-0.1,0.4-0.2
			c0.4-0.4,0.8-0.7,1.2-1.1c2.1-2.1,4.2-4.1,6.4-6.2s4.5-4.1,6.9-6c4.4-3.5,9.2-6.4,14.4-8.6c3.6-1.5,7.4-2.5,11.3-2.9
			c1.3-0.2,2.6-0.2,4-0.2c3.9-0.1,7.8,0.2,11.6,1c2.8,0.6,5.4,1.4,8,2.6c6.7,3.2,11.5,8.2,14.6,14.9c1.5,3.2,2.6,6.5,3.3,10
			c0.8,3.6,1.2,7.2,1.5,10.9c0.3,4.3,0.4,8.6,0.4,12.9c0,17.6,0,35.2,0,52.9c0,2,0,4.1,0,6.1c0,2.7,0.3,5.3,0.5,7.9
			c0.1,1.6,0.5,3.2,1,4.8c0.8,2.7,2.5,4.8,4.8,6.4c1.1,0.7,2.3,1.3,3.5,1.8c1.4,0.5,2.8,1,4.2,1.4c0.6,0.2,1.2,0.4,1.8,0.6
			c0.2,0.1,0.3,0.3,0.4,0.5c0,0.1,0,0.1,0,0.2c0,1.9,0,3.7,0,5.6c0,0.3-0.3,0.6-0.6,0.6c-0.2,0-0.5,0.1-0.7,0.1c-0.6,0-1.2,0-1.9,0
			c-16.8,0-33.7,0-50.5,0c-0.8,0-1.6,0-2.3,0c-0.6,0-0.9-0.3-0.9-0.8c0-1.8,0-3.6,0-5.4c0-0.5,0.3-0.8,0.8-1c1.3-0.4,2.7-0.9,4-1.4
			c1.1-0.4,2.2-0.9,3.2-1.4c2.6-1.3,4.4-3.4,5.5-6.1c0.6-1.6,1-3.3,1.4-4.9c0.2-1.1,0.4-2.3,0.5-3.5c0.2-3,0.4-5.9,0.4-8.9
			c0-14.7,0.1-29.5,0-44.2c0-5.2-0.2-10.4-0.7-15.6c-0.2-3-0.6-5.9-1.1-8.8s-1.2-5.8-2.4-8.5c-2.7-6.5-7.5-10.6-14.2-12.5
			c-1.3-0.3-2.6-0.6-3.9-0.7c-2.1-0.1-4.2-0.2-6.3,0c-3.5,0.2-6.9,1.2-10,3c-6.6,3.7-12.2,8.7-16.6,14.9c-2.6,3.7-4.1,7.9-4.4,12.4
			c-0.1,1.2-0.2,2.5-0.2,3.7c0,18.6,0,37.3,0,55.9c0,3.1,0.2,6.2,0.4,9.3c0.1,1.9,0.3,3.7,0.8,5.5c0.2,0.9,0.5,1.8,0.9,2.7
			c1,2.6,2.8,4.6,5.3,6c2,1.1,4.1,1.9,6.3,2.6c0.7,0.2,1.3,0.4,2,0.6c0.4,0.1,0.6,0.5,0.6,0.9c0,1.8,0,3.6,0,5.4
			c0,0.5-0.4,0.8-0.9,0.8c-0.6,0-1.2,0-1.9,0c-17,0-34,0-51,0c-0.7,0-1.4,0-2.1-0.1c-0.4,0-0.7-0.4-0.7-0.8c-0.1-1.9-0.1-3.7,0-5.6
			c0-0.3,0.2-0.6,0.5-0.7c1-0.3,1.9-0.6,2.9-1c1.3-0.5,2.6-1,3.9-1.6c3-1.4,5.1-3.8,6.2-6.9c0.8-2.3,1.3-4.6,1.6-7.1
			c0.4-3.6,0.5-7.3,0.5-11c0-22.6,0-45.2,0-67.8c0-2.7-0.1-5.3-0.1-8c0-2.2-0.2-4.4-0.4-6.5c-0.2-1.6-0.6-3.2-1.1-4.8
			c-1.2-3.2-3.4-5.6-6.6-6.9c-2.3-1-4.7-1.6-7.2-2.1C854.2,387.5,853.4,387.4,852.8,386.9z"/>
		<path class="st0" d="M1102.2,386.6c-0.1-0.2-0.2-0.4-0.2-0.5c0-1.9,0-3.7,0-5.6c0-0.4,0.3-0.7,0.7-0.7c0.6,0,1.2-0.1,1.9-0.1
			c11.9,0,23.9,0,35.8,0c2.8,0,2.7-0.2,2.7,2.6c0,2.5,0,5,0,7.5c0,30.8,0,61.6,0,92.4c0,4.1,0.2,8.1,0.4,12.2
			c0.1,1.9,0.4,3.9,0.9,5.8c1.1,4.1,3.5,6.9,7.4,8.4c1.8,0.7,3.7,1.3,5.6,1.8c0.8,0.2,1.7,0.4,2.5,0.6c0.5,0.1,0.9,0.5,0.9,0.9
			c0,1.9,0,3.9,0,5.8c0,0.5-0.4,0.8-0.9,0.9c-0.9,0.1-1.7,0.1-2.6,0.1c-2.3,0.1-4.7,0.2-7,0.3c-0.2,0-0.5,0-0.7,0
			c-5.2,0.2-10.4,0.4-15.7,0.6c-1,0-2,0-3,0.1c-3.5,0.3-7,0.2-10.5,0.2c-0.2,0-0.5,0-0.7,0c-0.3,0-0.6-0.3-0.6-0.6
			c0-0.4-0.1-0.8-0.1-1.2c0.1-3.1,0.2-6.2,0.3-9.3c0.1-3.3,0.3-6.7,0.4-10c0-0.7,0-1.4,0-2.1c0-0.3-0.3-0.6-0.6-0.7
			c-0.4-0.1-0.7-0.3-1.1-0.3c-0.3,0-0.6,0.1-0.9,0.2c-0.5,0.4-1,1-1.5,1.5c-2.1,2.2-4.3,4.3-6.5,6.4c-3.1,2.8-6.4,5.5-9.9,7.9
			c-3,2-6.1,3.8-9.4,5.3c-4.8,2.1-9.8,3.5-15.1,3.7c-5.3,0.3-10.6-0.1-15.8-1.6c-2.6-0.7-5.2-1.7-7.6-3.1
			c-4.9-2.8-8.7-6.8-11.5-11.7c-1.8-3.2-3.1-6.6-4-10.2c-0.7-2.9-1.2-5.8-1.5-8.7c-0.6-5.2-0.8-10.4-0.8-15.6c0-18.2,0-36.5,0-54.7
			c0-1.9,0-3.7,0-5.6c0-2.7-0.3-5.5-0.5-8.2c-0.2-1.9-0.6-3.7-1.3-5.4c-1.1-2.8-3-4.9-5.7-6.2c-2-0.9-4-1.7-6.1-2.3
			c-2.8-0.8-2.5-0.4-2.5-3.5c0-1.1,0-2.2,0.1-3.3c0-0.4,0.3-0.8,0.7-0.8s0.8-0.1,1.2-0.1c12.4,0,24.8,0,37.2,0c0.5,0,0.9,0,1.4,0.1
			c0.3,0,0.6,0.3,0.6,0.6c0,0.3,0.1,0.6,0.1,0.9c0,0.8,0,1.6,0,2.3c0,23,0,46,0,69c0,3.1,0.1,6.2,0.1,9.4c0,4,0.3,7.9,0.6,11.9
			c0.4,4.4,1,8.8,2.2,13.1c0.2,0.8,0.5,1.6,0.8,2.4c1.8,5,5.1,8.7,9.6,11.3c1.1,0.7,2.4,1.2,3.6,1.5c3.5,1,7.1,1.2,10.6,1.1
			c3.5-0.1,6.8-1,9.9-2.5c1.4-0.7,2.8-1.4,4.1-2.3c3.9-2.6,7.5-5.6,10.7-9.1c1.2-1.3,2.2-2.6,3.2-4c2-3,3.3-6.4,3.9-9.9
			c0.3-1.8,0.4-3.6,0.4-5.4c0-19.1,0-38.2,0-57.3c0-3.4-0.1-6.7-0.5-10c-0.2-1.6-0.5-3.2-0.9-4.8c-0.3-1.3-0.9-2.5-1.5-3.7
			c-0.9-1.7-2.2-3-3.8-4.1c-1.1-0.7-2.3-1.3-3.5-1.8c-1.3-0.5-2.7-0.9-4-1.3C1103.4,387,1102.8,386.8,1102.2,386.6z"/>
		<path class="st0" d="M529.4,493.8c-0.3,0.4-0.4,0.6-0.7,0.8c-4.4,4.5-9,8.9-14,12.7c-6.5,5-13.7,8.7-21.6,11
			c-4.3,1.2-8.7,1.9-13.1,2.2c-4.2,0.3-8.4,0.2-12.6-0.1c-6.4-0.5-12.6-1.8-18.6-4.2c-9.6-3.8-17.2-10-22.8-18.7
			c-3.3-5.1-5.7-10.6-7.4-16.4c-1.4-4.6-2.3-9.2-2.9-13.9c-0.9-6.4-1.1-12.9-1.1-19.4c0-2,0.1-4.1,0.2-6.1c0.8-11.2,3.3-22,8.4-32.1
			c3.5-7,8.1-13.1,14-18.3c6.8-5.9,14.5-9.9,23.1-12.2c3.1-0.8,6.2-1.4,9.4-1.7c3.6-0.3,7.3-0.7,11-0.3c1,0.1,2,0.1,3,0.2
			c5.9,0.4,11.7,1.5,17.3,3.8c5.6,2.3,10.7,5.5,14.9,9.9c2.7,2.8,4.9,5.9,6.7,9.2c2.4,4.4,4.2,9,5.6,13.8c1.1,3.8,1.9,7.7,2.4,11.7
			c0.9,6.2,1.3,12.4,1.5,18.6c0.1,2.1,0,2.3-2.1,2.3c-0.8,0-1.6,0-2.3,0c-27.8,0-55.5,0-83.3,0c-0.9,0-1.9,0-2.8,0.1
			c-0.5,0-0.8,0.4-0.9,0.9c0,0.1,0,0.2,0,0.2c0,3.5-0.1,7,0.2,10.5c0.2,2.4,0.4,4.8,0.8,7.2c0.6,4.8,1.7,9.5,3.3,14.1
			c1.4,4,3.4,7.7,6.1,11c5,6.2,11.4,10.1,19.2,11.7c3.1,0.6,6.2,1,9.3,0.9c1,0,2,0,3,0c9.2-0.3,17.7-2.8,25.3-7.9
			c3.8-2.6,7.4-5.5,10.6-8.8c0.7-0.7,1.3-1.4,2.1-1.9c0.2,0.1,0.4,0.2,0.6,0.4C522.5,486.1,528.5,492.7,529.4,493.8z M473.4,434.9
			c9.6,0,19.2,0,28.8,0c0.8,0,1.6,0,2.3-0.1c0.4,0,0.8-0.4,0.8-0.7c0-0.5,0-1.1,0-1.6c-0.1-3.1-0.5-6.2-0.9-9.3
			c-0.5-3.8-1.1-7.6-2.1-11.3c-0.9-3.4-2-6.7-3.6-9.8c-1.3-2.6-3-4.9-5-7c-3.2-3.2-7-5.2-11.4-6c-3.9-0.8-7.9-0.7-11.9-0.1
			c-5.5,1-10.3,3.4-14.4,7.2c-2.2,2.1-4.1,4.5-5.7,7.1c-1.7,2.7-3.1,5.6-4.1,8.6c-2.4,6.6-3.7,13.5-4.3,20.5
			c-0.2,2.5-0.2,2.5,2.3,2.5c0.5,0,0.9,0,1.4,0C454.8,434.9,464.1,434.9,473.4,434.9z"/>
		<path class="st0" d="M1183,387c0.3-0.1,0.5-0.2,0.7-0.2c0.8-0.2,1.5-0.3,2.3-0.4c1.4-0.2,2.8-0.5,4.1-0.9c0.6-0.2,1.2-0.4,1.8-0.6
			c2.6-1.1,4.4-2.9,5.5-5.5c0.9-2,1.4-4.1,1.8-6.3c0.5-2.8,0.8-5.7,1.1-8.6c0.6-6.8,1.6-13.5,3.7-20c2.2-7,5.8-13.3,11-18.5
			c7-7.1,15.3-11.9,25.1-14.2c2.8-0.6,5.7-1.1,8.5-1.4c5.1-0.6,10.1-0.5,15.2-0.5c1.1,0,2.2,0.1,3.3,0.1c3.5,0.1,7,0.6,10.5,1.1
			c0.4,0.1,0.8,0.2,1.1,0.4c0.2,0.1,0.4,0.3,0.4,0.5c0.1,0.4,0.1,0.8,0.1,1.2c0,7.6,0,15.1,0,22.7c0,1.6-0.1,1.7-1.7,1.7
			c-3.7,0-7.3,0-11,0c-0.5,0-0.9-0.1-1.4-0.1c-0.3-0.6-0.5-1.2-0.7-1.8c-0.6-1.4-1.2-2.9-1.8-4.3c-0.6-1.4-1.5-2.7-2.4-4
			c-2-2.8-4.8-4.5-8.1-5.1c-3.1-0.6-6.2-0.5-9.3,0.1c-4.2,0.8-7.6,3.2-10.3,6.5c-1.4,1.8-2.5,3.8-3.4,5.9c-1,2.4-1.7,4.9-2.2,7.4
			s-0.8,5.1-1.1,7.6c-0.4,4.1-0.5,8.2-0.5,12.4c-0.1,5,0,10,0,15c0,0.6,0,1.2,0.1,1.9c0,0.2,0.4,0.6,0.6,0.6s0.5,0.1,0.7,0.1
			c0.8,0,1.6,0,2.3,0c9.4,0,18.7,0,28.1,0c3.2,0,2.9-0.2,2.9,2.9s0,6.2,0,9.4c0,0.5,0,1.1-0.1,1.6c0,0.2-0.3,0.4-0.4,0.5
			c-0.5,0.1-0.9,0.1-1.4,0.1c-2.4,0-4.8,0-7.3,0c-7.5,0-15,0-22.5,0c-0.8,0-1.6,0-2.3,0.1c-0.3,0-0.6,0.3-0.6,0.6
			c0,0.3-0.1,0.6-0.1,0.9c0,0.7,0,1.4,0,2.1c0,28.3,0,56.6,0,84.9c0,2.6,0.1,5.3,0.2,7.9c0.1,3,0.5,5.9,1.3,8.8
			c0.1,0.4,0.3,0.9,0.4,1.3c1.2,3.8,3.7,6.4,7.3,8c1.9,0.8,3.8,1.4,5.8,1.9c0.8,0.2,1.5,0.4,2.3,0.6c0.4,0.1,0.6,0.4,0.6,0.9
			c0,1.8,0,3.6,0,5.4c0,0.5-0.4,0.8-0.9,0.9c-0.6,0-1.2,0-1.9,0c-17.9,0-35.7,0-53.6,0c-0.6,0-1.2,0-1.9,0c-0.6,0-1-0.4-1-1.1
			c0-1.7,0-3.4,0-5.1c0-0.4,0.3-0.8,0.6-0.9c1-0.4,2.1-0.6,3.1-1c1.2-0.4,2.5-0.9,3.7-1.4c0.9-0.4,1.7-0.8,2.5-1.3
			c2.2-1.4,3.7-3.3,4.6-5.8c0.7-1.9,1.1-3.9,1.4-5.9c0.5-3.5,0.5-7,0.5-10.5c0-29.5,0-58.9,0-88.4c0-0.6,0-1.2,0-1.9
			c0-0.7-0.4-1-1-1c-0.7,0-1.4,0-2.1,0c-3.8,0-7.6,0-11.5,0c-0.7,0-1.4,0-2.1-0.1c-0.3,0-0.6-0.3-0.6-0.6c0-0.2-0.1-0.3-0.1-0.5
			c0-1.7,0-3.4,0-5.1C1182.8,387.6,1182.9,387.3,1183,387z"/>
		<path class="st0" d="M667,398c0,4.1,0,8.1,0,12.2c0,0.7,0,1.4,0,2.1c0,0.5-0.4,0.8-0.9,0.9c-0.3,0-0.6,0-0.9,0c-0.6,0-1.2,0-1.9,0
			c-3.7,0-7.5,0-11.2,0c-0.6,0-1.2,0-1.9,0c-1,0-1.4-0.1-1.8-1.4c-0.6-2.3-1.4-4.5-2.2-6.6c-0.7-1.8-1.6-3.6-2.5-5.3
			c-1.1-1.8-2.3-3.5-3.7-5.1c-2.4-2.5-5.2-4.2-8.5-5.2c-2.1-0.6-4.2-1-6.4-1.1c-1.3,0-2.7-0.1-4,0c-4.5,0.1-8.8,1.3-12.7,3.6
			c-3,1.7-5.6,3.9-7.9,6.6c-2,2.3-3.6,4.9-5.1,7.6c-2.5,4.8-4.3,9.8-5.6,15.1c-0.9,3.9-1.6,7.8-2,11.7c-0.7,6.6-0.9,13.2-0.7,19.8
			c0.2,5.1,0.6,10.3,1.3,15.4c0.7,4.5,1.7,8.9,3.3,13.1c1.2,3.1,2.7,6.1,4.6,8.9c3.2,4.6,7.3,8.1,12.4,10.3c2.6,1.1,5.3,1.8,8.1,2.3
			c3.6,0.6,7.2,0.6,10.7,0.3c7.2-0.6,13.9-2.8,19.9-6.7c3.7-2.4,7-5.2,10.1-8.3c0.7-0.7,1.3-1.3,2-2c0.2-0.2,0.6-0.2,0.8,0
			c0.1,0.1,0.1,0.1,0.2,0.2c2.3,2.7,4.7,5.4,7,8.1c0.3,0.4,0.3,0.7,0.1,1c-0.1,0.2-0.3,0.4-0.4,0.5c-3.1,3.4-6.4,6.7-9.8,9.7
			c-7.9,6.8-17,11.3-27.1,13.6c-2.8,0.6-5.7,1.1-8.6,1.2c-0.4,0-0.8,0-1.2,0.1c-4.6,0.3-9.2,0.1-13.8-0.5c-4.1-0.5-8.1-1.5-12-2.9
			c-8.4-3.1-15.3-8.3-20.8-15.4c-3.6-4.7-6.3-9.8-8.3-15.4c-1.8-4.8-3-9.8-3.9-14.9c-0.8-4.5-1.3-9.1-1.5-13.7
			c-0.1-3-0.3-5.9-0.2-8.9c0.1-6.8,0.7-13.5,2.2-20.2c2-8.7,5.2-17,10.2-24.5c7.8-11.9,18.5-20,32.2-24.3c3.4-1.1,6.9-1.8,10.5-2.2
			c3.7-0.5,7.5-0.7,11.2-0.7c3.6,0,7.2,0.1,10.8,0.4c2.4,0.2,4.8,0.4,7.2,0.7c4.1,0.5,8.2,1.2,12.2,2c3.1,0.7,6.2,1.4,9.3,2.3
			c0.2,0.1,0.4,0.1,0.7,0.2s0.5,0.4,0.5,0.7c0,0.7,0.1,1.4,0.1,2.1C667.1,389.7,667,393.9,667,398z"/>
	</g>
	<polygon class="st0" points="262.2,289.8 477.3,166.4 556.8,307.8 	"/>
	<polygon class="st0" points="262.2,289.8 139.6,500.7 0,419.3 	"/>
</g>
</svg>
